# xmcd CD database file
#
# Track frame offsets:
#	150
#	23512
#	54187
#	88800
#	124500
#	151187
#	176455
#	200677
#	231257
#
# Disc length: 3337 seconds
#
# Revision: 0
# Processed by: cddbd v1.5.1PL2 Copyright (c) Steve Scherf et al.
# Submitted via: CDex 1.51
#
DISCID=650d0709
DTITLE=Barry Harris - I'm Old Fashioned
DYEAR=1998
DGENRE=Jazz
TTITLE0=Just One Of Those Things
TTITLE1=I'll Walk Alone
TTITLE2=Autumn In New York
TTITLE3=I'm Old Fashioned
TTITLE4=I'll Keep Loving You
TTITLE5=All God's Chillun Got Rhythm
TTITLE6=I Waited For You
TTITLE7=Pretty Mama
TTITLE8=If I Had But One Dream
EXTD=YEAR: 1998
EXTT0=
EXTT1=
EXTT2=
EXTT3=
EXTT4=
EXTT5=
EXTT6=
EXTT7=
EXTT8=
PLAYORDER=
